<?xml version="1.0" encoding="UTF-8"?>

<svg xmlns="http://www.w3.org/2000/svg" xmlns:svg="http://www.w3.org/2000/svg" width="200" height="200">
    <style>
    .col-line, .row-line, .bg { stroke: red; stroke-width: 3; }
    .bg { fill:none; }
    </style>
    <g transform="translate(-163.79295,-227.20876)">
        <g transform="matrix(0.9936024,0,0,0.99973108,1.0449718,0.11490169)">
            <g transform="matrix(1.0418304,0,0,0.98990834,-12.90886,4.3118523)" >
                <path d="m 209.05212,226.7811 0,199" class="col-line" />
                <path d="m 246.65213,226.7811 0,199" class="col-line" />
                <path d="m 284.25215,226.7811 0,199" class="col-line" />
                <path d="m 321.85212,226.7811 0,199" class="col-line" />
                <path d="m 359.45216,226.7811 0,199" class="col-line" />
            </g>
            <g transform="matrix(0,1.0475766,-0.9963307,0,589.04228,49.132396)">
                <path d="m 171.45213,226.7811 0.0299,198.52896 188.00037,-1e-5 -0.0302,-198.52895" class="bg" />
                <path d="m 209.05212,226.7811 0,200" class="row-line" />
                <path d="m 246.65213,226.7811 0,200" class="row-line" />
                <path d="m 284.25215,226.7811 0,200" class="row-line" />
                <path d="m 321.85212,226.7811 0,200" class="row-line" />
            </g>
        </g>
    </g>
</svg>
